<?xml version="1.0" encoding="utf-8"?>
<!-- Generator: Adobe Illustrator 27.8.1, SVG Export Plug-In . SVG Version: 6.00 Build 0)  -->
<svg version="1.1" id="Слой_1" xmlns="http://www.w3.org/2000/svg" xmlns:xlink="http://www.w3.org/1999/xlink" x="0px" y="0px"
	 viewBox="0 0 500 500" style="enable-background:new 0 0 500 500;" xml:space="preserve">
<style type="text/css">
	.st0{opacity:0.932;fill-rule:evenodd;clip-rule:evenodd;fill:#8926DC;enable-background:new    ;}
	.st1{opacity:0.88;fill-rule:evenodd;clip-rule:evenodd;enable-background:new    ;}
	.st2{opacity:0.892;fill-rule:evenodd;clip-rule:evenodd;enable-background:new    ;}
	.st3{opacity:0.909;fill-rule:evenodd;clip-rule:evenodd;enable-background:new    ;}
	.st4{opacity:0.899;fill-rule:evenodd;clip-rule:evenodd;enable-background:new    ;}
	.st5{opacity:0.923;fill-rule:evenodd;clip-rule:evenodd;enable-background:new    ;}
	.st6{opacity:0.897;fill-rule:evenodd;clip-rule:evenodd;enable-background:new    ;}
	.st7{opacity:0.916;fill-rule:evenodd;clip-rule:evenodd;fill:#8926DC;enable-background:new    ;}
</style>
<g>
	<path class="st0" d="M13.5,212.5c7.7,0,15.3,0,23,0c0.2,7.4-0.1,14.7-1,22c-0.3,2.5,0.6,4.5,2.5,6c3.4-0.4,6.4-1.8,9-4
		c3.7-7.5,6.8-15.1,9.5-23c7.3-1,14.6-1.3,22-1c-1.9,11.2-6.1,21.6-12.5,31c-7.4,6-15.6,10.8-24.5,14.5c0,0-1.1-1.4,0,0
		c0,0-1.7,0.2-2,0.5c-1.7-1.9,0.6,0.6,0,0c-1.5,0.6-2.8,1.4-4,2.5c1.1,8.1,1.3,16.3,0.5,24.5c-7.3,1.3-14.7,1.3-22,0
		C14.6,261.2,14.4,236.8,13.5,212.5z"/>
</g>
<g>
	<path class="st1" d="M98.5,226.5c4.3-0.3,8.4,0,12.5,1c3.3,11.3,6.7,22.7,10,34c3.3-11.3,6.7-22.7,10-34c4.1-1.1,8.2-1.3,12.5-0.5
		c-5.2,15.2-10.6,30.4-16,45.5c-4.6,1.3-9.1,1.3-13.5,0C108.5,257.3,103.4,241.9,98.5,226.5z"/>
</g>
<g>
	<path class="st2" d="M148.5,226.5c3.7,0,7.3,0,11,0c-0.2,6.7,0,13.3,0.5,20c4.2-6.3,8.3-12.7,12.5-19c4.6-1.2,9.3-1.3,14-0.5
		c-5.3,7.3-10.7,14.7-16,22c6,8,12,16,18,24c-5,0.7-10,0.7-15,0c-4.6-6.7-9.1-13.6-13.5-20.5c-0.5,7-0.7,14-0.5,21
		c-3.7,0-7.3,0-11,0C148.5,257.8,148.5,242.2,148.5,226.5z"/>
</g>
<g>
	<path class="st3" d="M210.5,226.5c8.3-0.2,16.7,0,25,0.5c7.6,2,10.4,6.8,8.5,14.5c-1.6,3.3-4.1,5.4-7.5,6.5
		c9.4,3.1,12.3,9.2,8.5,18.5c-1.9,2.2-4,4-6.5,5.5c-9.3,1.4-18.6,1.9-28,1.5C210.5,257.8,210.5,242.2,210.5,226.5z M221.5,234.5
		c3.1-0.1,6.1,0.4,9,1.5c2.7,2.7,2.7,5.3,0,8c-2.9,1.3-5.9,1.8-9,1.5C221.5,241.8,221.5,238.2,221.5,234.5z M221.5,253.5
		c3.8-0.2,7.4,0.3,11,1.5c3.2,4.6,2.2,7.9-3,10c-2.6,0.5-5.3,0.7-8,0.5C221.5,261.5,221.5,257.5,221.5,253.5z"/>
</g>
<g>
	<path class="st4" d="M253.5,226.5c8.3-0.2,16.7,0,25,0.5c8.6,3,11.4,8.8,8.5,17.5c-1.4,3.6-3.9,6.3-7.5,8c5.3,6.4,9.9,13.3,14,20.5
		c-4.3,0.7-8.7,0.7-13,0c-3.5-6-7.5-11.7-12-17c-1.3-0.5-2.6-0.7-4-0.5c0,6,0,12,0,18c-3.7,0-7.3,0-11,0
		C253.5,257.8,253.5,242.2,253.5,226.5z M264.5,234.5c5.7-1.2,9.7,0.8,12,6c-1.9,5.7-5.9,8-12,7
		C264.5,243.2,264.5,238.8,264.5,234.5z"/>
</g>
<g>
	<path class="st5" d="M297.5,226.5c9.3,0,18.7,0,28,0c0,3,0,6,0,9c-5.7,0-11.3,0-17,0c0,3.3,0,6.7,0,10c5.3,0,10.7,0,16,0
		c0,3,0,6,0,9c-5.3,0-10.7,0-16,0c0,3.3,0,6.7,0,10c6,0,12,0,18,0c0,3,0,6,0,9c-9.7,0-19.3,0-29,0
		C297.5,257.8,297.5,242.2,297.5,226.5z"/>
</g>
<g>
	<path class="st6" d="M344.5,226.5c4.7,0,9.3,0,14,0c4.8,15.5,10.1,30.8,16,46c-4.3,1-8.6,1.3-13,1c-0.9-3.3-1.5-6.6-2-10
		c-5.7,0-11.3,0-17,0c-0.5,3.3-1.5,6.5-3,9.5c-4,0.8-8,0.7-12-0.5C333.2,257.1,338.8,241.8,344.5,226.5z M350.5,237.5
		c1.9,5.4,3.9,10.9,6,16.5c-3.7,0.8-7.4,0.7-11-0.5C347.6,248.3,349.2,242.9,350.5,237.5z"/>
</g>
<g>
	<path class="st2" d="M380.5,226.5c3.7,0,7.3,0,11,0c-0.2,6.7,0,13.3,0.5,20c4.2-6.3,8.3-12.7,12.5-19c4.6-1.2,9.3-1.3,14-0.5
		c-5.3,7.3-10.7,14.7-16,22c6,8,12,16,18,24c-5,0.7-10,0.7-15,0c-4.6-6.7-9.1-13.6-13.5-20.5c-0.5,7-0.7,14-0.5,21
		c-3.7,0-7.3,0-11,0C380.5,257.8,380.5,242.2,380.5,226.5z"/>
</g>
<g>
	<path class="st5" d="M423.5,226.5c9.3,0,18.7,0,28,0c0,3,0,6,0,9c-5.7,0-11.3,0-17,0c0,3.3,0,6.7,0,10c5.3,0,10.7,0,16,0
		c0,3,0,6,0,9c-5.3,0-10.7,0-16,0c0,3.3,0,6.7,0,10c6,0,12,0,18,0c0,3,0,6,0,9c-9.7,0-19.3,0-29,0
		C423.5,257.8,423.5,242.2,423.5,226.5z"/>
</g>
<g>
	<path class="st4" d="M499.5,272.5c0,0.3,0,0.7,0,1c-4.3,0.2-8.7,0-13-0.5c-3.5-6-7.5-11.7-12-17c-1.3-0.5-2.6-0.7-4-0.5
		c0,6,0,12,0,18c-3.7,0-7.3,0-11,0c0-15.7,0-31.3,0-47c8.3-0.2,16.7,0,25,0.5c7.3,2.1,10.5,6.9,9.5,14.5c-0.9,5.2-3.8,8.9-8.5,11
		C490.6,258.9,495.3,265.6,499.5,272.5z M470.5,234.5c5.7-1.2,9.7,0.8,12,6c-1.9,5.7-5.9,8-12,7
		C470.5,243.2,470.5,238.8,470.5,234.5z"/>
</g>
<g>
	<path class="st7" d="M62.5,255.5c1-0.1,1.8,0.2,2.5,1c4.8,7.1,9.1,14.4,13,22c0.8,2.6,0.6,5.1-0.5,7.5c-7,0.7-14,0.7-21,0
		c-4.4-6.6-8.4-13.4-12-20.5C50.4,262,56.4,258.6,62.5,255.5z"/>
</g>
</svg>
